<svg xmlns="http://www.w3.org/2000/svg" xmlns:xlink="http://www.w3.org/1999/xlink" width="46.198" height="42.463" viewBox="0 0 46.198 42.463"><defs><style>.a{fill:#fff;}.b{filter:url(#a);}</style><filter id="a" x="0" y="0" width="46.198" height="42.463" filterUnits="userSpaceOnUse"><feOffset dy="1" input="SourceAlpha"/><feGaussianBlur stdDeviation="3" result="b"/><feFlood flood-opacity="0.161"/><feComposite operator="in" in2="b"/><feComposite in="SourceGraphic"/></filter></defs><g class="b" transform="matrix(1, 0, 0, 1, 0, 0)"><path class="a" d="M-31.377-11.836l-.937-1.011a.7.7,0,0,1-.161-.439.687.687,0,0,1,.22-.5l2.7-2.534a.68.68,0,0,1,.454-.161.723.723,0,0,1,.264.051.544.544,0,0,1,.22.154L-21.2-8.262-8.408-24.727a.68.68,0,0,1,.527-.249.621.621,0,0,1,.41.146l2.944,2.271a.787.787,0,0,1,.168.212.519.519,0,0,1,.081.256.83.83,0,0,1-.146.469L-20.859-.513Z" transform="translate(41.48 32.98)"/></g></svg>